# xmcd CD database file
#
# Track frame offsets:
#	150
#	20213
#	36730
#	55727
#	72836
#	87941
#	108453
#	125123
#	141395
#	163674
#	176796
#
# Disc length: 2609 seconds
#
# Revision: 1
# Processed by: cddbd v1.4PL0 Copyright (c) Steve Scherf et al.
# Submitted via: CDValet v3.40 - Copyright (c) 1996 - 1998 Greg Leichner
#
DISCID=aa0a2f0b
DTITLE=Boste, Cyndi - Push Comes To Shove
DYEAR=1900
DGENRE=
TTITLE0=Holy Waters
TTITLE1=Take My Hand
TTITLE2=Cry Down
TTITLE3=Same Things
TTITLE4=To My Left
TTITLE5=Run
TTITLE6=Suffer Me (One More Day)
TTITLE7=Living In The Neighbourhood
TTITLE8=Like Honey
TTITLE9=Think Of Me
TTITLE10=Roller
EXTD=
EXTT0=
EXTT1=
EXTT2=
EXTT3=
EXTT4=
EXTT5=
EXTT6=
EXTT7=
EXTT8=
EXTT9=
EXTT10=
PLAYORDER=
